<svg width="24" height="24" viewBox="0 0 24 24" fill="none" xmlns="http://www.w3.org/2000/svg">
<path d="M21.3505 0H2.64943C1.18628 0 0 1.18629 0 2.64942V21.3505C0 22.8138 1.18628 24 2.64943 24H21.3505C22.8138 24 24 22.8138 24 21.3505V2.64942C24 1.18629 22.8138 0 21.3505 0ZM18.228 7.63585C18.1547 8.99658 17.8089 10.689 17.5938 12.0639C17.4249 13.1434 17.0314 16.4653 16.4769 17.2098C16.0984 17.7184 15.4256 17.3975 14.9769 17.1505C13.6886 16.4418 12.435 15.3061 11.1347 14.5736C10.8064 14.3108 10.689 13.8197 10.9744 13.4816L14.9434 9.57C15.0793 9.38271 14.9255 9.19501 14.7104 9.22757C12.9836 10.3003 11.3349 11.6319 9.59272 12.6738C8.73987 13.1837 8.35586 13.2643 7.36243 13.023C6.99342 12.9335 5.39615 12.4727 5.18443 12.2781C4.84243 11.964 5.154 11.5886 5.47929 11.43C8.98544 9.97329 12.4406 8.322 15.9865 6.95914C16.401 6.79972 16.8874 6.57086 17.3301 6.52843C18.1784 6.44701 18.2665 6.92486 18.228 7.63585Z" fill="white"/>
</svg>