<svg width="24" height="24" viewBox="0 0 24 24" fill="none" xmlns="http://www.w3.org/2000/svg">
<path d="M21.3505 0H2.64942C1.18629 0 0 1.18629 0 2.64942V21.3505C0 22.8138 1.18629 24 2.64942 24H21.3505C22.8138 24 24 22.8138 24 21.3505V2.64942C24 1.18629 22.8138 0 21.3505 0ZM16.7126 17.2628C16.2335 15.5044 14.7197 14.0074 12.8554 13.8342V17.2628C9.9 17.4077 7.13529 16.1807 5.57785 13.6333C4.48542 11.8461 4.10828 9.73671 4.02686 7.66286H6.684C6.714 9.14142 6.96086 10.7066 7.66243 12.0201C8.20972 13.0453 9.15557 14.0533 10.3269 14.3058V7.66286H12.8554V11.4343C14.7099 11.1484 15.8692 9.306 16.4341 7.66286H18.8982C18.5541 9.63258 17.2852 11.349 15.6421 12.4414C17.4994 13.44 18.9557 15.1972 19.4554 17.2628H16.7126Z" fill="white"/>
</svg>
