<svg width="24" height="24" viewBox="0 0 24 24" fill="none" xmlns="http://www.w3.org/2000/svg">
<g clip-path="url(#clip0_1_528)">
<path d="M10.3453 6.2888C6.51862 7.41166 4.91191 11.9956 7.16406 15.2914L6.58034 17.457L8.78963 16.8985C11.9152 18.8785 16.1876 17.5645 17.5162 14.0896C19.273 9.4945 15.0717 4.90194 10.3453 6.2888ZM15.5786 14.1933C15.3438 15.2545 14.1099 15.4795 13.1931 15.2408C11.5008 14.8002 10.1212 13.6139 9.14705 12.2005C8.58776 11.3888 8.1532 10.4348 8.61391 9.45508C8.73134 9.20523 9.11148 8.71964 9.39006 8.67293C9.52077 8.65108 9.84348 8.64594 9.97249 8.6665C10.1319 8.69179 10.1936 8.84265 10.2601 8.9725C10.4023 9.25194 10.7521 10.0491 10.8296 10.3324C10.9526 10.7824 10.2502 11.1612 10.251 11.4282C10.2515 11.5971 10.7636 12.2554 10.9021 12.4118C11.2638 12.8207 11.769 13.221 12.2559 13.4696C12.4603 13.5736 12.8743 13.8111 13.0711 13.6521C13.269 13.4918 13.465 13.1176 13.6475 12.9299C13.8656 12.7053 13.9887 12.8164 14.2484 12.9244C14.5432 13.0465 15.2632 13.3607 15.4976 13.5299C15.7106 13.6838 15.6284 13.9693 15.5786 14.1933Z" fill="white"/>
<path d="M21.3505 0H2.64942C1.18628 0 0 1.18629 0 2.64942V21.3505C0 22.8138 1.18628 24 2.64942 24H21.3505C22.8138 24 24 22.8138 24 21.3505V2.64942C24 1.18629 22.8138 0 21.3505 0ZM19.1237 12.4114L18.9265 13.6055C17.8594 18.1277 12.6973 20.3819 8.61215 18.1723L4.91357 19.164H4.87628L5.87357 15.5079C3.92871 12.0411 5.12099 7.64572 8.59886 5.72658C13.1228 3.23015 18.699 6.26486 19.0852 11.3571L19.1237 11.4467V12.4114Z" fill="white"/>
</g>
<defs>
<clipPath id="clip0_1_528">
<rect width="24" height="24" fill="white"/>
</clipPath>
</defs>
</svg>