<svg width="64" height="64" viewBox="0 0 64 64" fill="none" xmlns="http://www.w3.org/2000/svg">
<circle cx="32" cy="32" r="32" fill="white"/>
<path d="M41.4994 24.0421C41.5227 23.214 40.8702 22.5238 40.0421 22.5006L26.5474 22.1216C25.7193 22.0984 25.0292 22.7508 25.0059 23.5789C24.9827 24.407 25.6351 25.0972 26.4632 25.1205L38.4585 25.4573L38.1216 37.4526C38.0984 38.2807 38.7508 38.9708 39.5789 38.9941C40.407 39.0173 41.0972 38.3649 41.1205 37.5368L41.4994 24.0421ZM21.9695 38.9813C21.3675 39.5504 21.3409 40.4998 21.91 41.1018C22.4791 41.7038 23.4285 41.7304 24.0305 41.1613L23 40.0713L21.9695 38.9813ZM40 24L38.9695 22.91L21.9695 38.9813L23 40.0713L24.0305 41.1613L41.0305 25.09L40 24Z" fill="#001361"/>
</svg>
