<svg width="28" height="28" viewBox="0 0 28 28" fill="none" xmlns="http://www.w3.org/2000/svg">
<path d="M21.8118 10.696C21.3778 9.68795 20.7758 8.77795 19.9918 7.99395C19.2078 7.20995 18.3118 6.60795 17.2898 6.17395C16.2398 5.72595 15.1338 5.50195 13.9858 5.50195C12.8378 5.50195 11.7458 5.73995 10.6958 6.18795C9.68777 6.62195 8.77777 7.22395 7.99377 8.00795C7.20977 8.79195 6.60777 9.68795 6.17377 10.71C5.72577 11.76 5.50177 12.866 5.50177 14.014C5.50177 15.162 5.72577 16.268 6.17377 17.318C6.60777 18.326 7.20977 19.236 7.99377 20.02C8.77777 20.804 9.67377 21.406 10.6958 21.84C11.7458 22.288 12.8518 22.512 13.9998 22.512C15.1478 22.512 16.2538 22.288 17.3038 21.84C18.3118 21.406 19.2218 20.804 20.0058 20.02C20.7898 19.236 21.3918 18.34 21.8258 17.318C22.2738 16.268 22.4978 15.162 22.4978 14.014C22.4838 12.852 22.2598 11.746 21.8118 10.696ZM12.9218 19.194L10.6678 17.262L8.49777 15.4L10.4298 13.146L12.4178 14.854L17.1078 8.79195L19.5018 10.542L12.9218 19.194Z" fill="#F6D75A"/>
<path d="M28 14L26.432 11.522L26.936 8.638L24.542 6.944L23.898 4.088L21.042 3.444L19.362 1.05L16.478 1.54L14 0L11.536 1.568L8.652 1.064L6.958 3.458L4.102 4.102L3.458 6.958L1.064 8.638L1.554 11.522L0 14L1.568 16.478L1.064 19.362L3.458 21.056L4.102 23.912L6.958 24.556L8.638 26.95L11.522 26.46L14 28L16.478 26.432L19.362 26.936L21.056 24.542L23.912 23.898L24.556 21.042L26.95 19.362L26.46 16.478L28 14ZM14 23.954C8.498 23.954 4.046 19.502 4.046 14C4.046 8.498 8.498 4.046 14 4.046C19.502 4.046 23.954 8.498 23.954 14C23.954 19.502 19.502 23.954 14 23.954Z" fill="#F6D75A"/>
</svg>
