<svg viewBox="0 0 15 15" fill="none" xmlns="http://www.w3.org/2000/svg">
<path d="M13.9495 2.16618C14.069 2.05093 14.1642 1.91304 14.2298 1.76057C14.2954 1.60809 14.33 1.44409 14.3315 1.27811C14.333 1.11214 14.3015 0.947527 14.2387 0.793878C14.1759 0.640229 14.0832 0.50062 13.9658 0.3832C13.8485 0.265779 13.709 0.172897 13.5554 0.109974C13.4018 0.0470501 13.2372 0.0153455 13.0713 0.016709C12.9053 0.0180725 12.7413 0.052477 12.5887 0.117915C12.4362 0.183354 12.2982 0.278515 12.1828 0.397847L7.17285 5.40618L2.16451 0.397847C2.05008 0.275036 1.91208 0.176532 1.75874 0.108212C1.60541 0.0398925 1.43989 0.00315584 1.27205 0.000194533C1.10421 -0.00276677 0.937498 0.028108 0.781851 0.0909764C0.626204 0.153845 0.484815 0.247419 0.366117 0.366117C0.247419 0.484815 0.153845 0.626204 0.0909764 0.781851C0.028108 0.937498 -0.00276677 1.10421 0.000194533 1.27205C0.00315584 1.43989 0.0398925 1.60541 0.108212 1.75874C0.176532 1.91208 0.275036 2.05008 0.397847 2.16451L5.40285 7.17451L0.394514 12.1828C0.173714 12.4198 0.0535085 12.7332 0.0592222 13.0571C0.0649359 13.3809 0.196123 13.6899 0.425145 13.9189C0.654166 14.1479 0.963141 14.2791 1.28698 14.2848C1.61081 14.2905 1.92422 14.1703 2.16118 13.9495L7.17285 8.94118L12.1812 13.9512C12.4181 14.172 12.7316 14.2922 13.0554 14.2865C13.3792 14.2808 13.6882 14.1496 13.9172 13.9206C14.1462 13.6915 14.2774 13.3826 14.2831 13.0587C14.2889 12.7349 14.1686 12.4215 13.9478 12.1845L8.94285 7.17451L13.9495 2.16618Z" fill="white"/>
</svg>
