<svg width="13" height="18" viewBox="0 0 13 18" fill="none" xmlns="http://www.w3.org/2000/svg">
<path d="M6.5315 0C2.94558 0 0 2.76 0 6.12C0 7.2 0.320172 8.22 0.832447 9.12C0.832447 9.12 0.832447 9.12 0.832447 9.18L6.1473 17.82C6.27537 17.94 6.40344 18 6.5315 18C6.65957 18 6.78764 17.94 6.85168 17.82L12.1665 9.18C12.1665 9.18 12.1665 9.18 12.1665 9.12C12.7428 8.22 12.999 7.14 12.999 6.12C13.063 2.76 10.1174 0 6.5315 0ZM9.34902 6.12C9.34902 7.56 8.06833 8.76 6.5315 8.76C4.99468 8.76 3.77803 7.56 3.77803 6.12C3.77803 4.68 5.05871 3.54 6.5315 3.54C8.0043 3.54 9.34902 4.68 9.34902 6.12Z" fill="white"/>
</svg>
