<svg width="64" height="64" viewBox="0 0 64 64" fill="none" xmlns="http://www.w3.org/2000/svg">
<circle cx="32" cy="32" r="32" fill="white"/>
<g clip-path="url(#clip0_1_54)">
<path d="M17.9058 30.5688V34.9653H21.5535L24.2422 30.586C24.3278 30.5171 24.8245 30.586 24.9615 30.5688L26.2116 32.6033C26.6055 32.6205 26.9994 32.6377 27.3761 32.7067L27.2391 33.1377C26.9994 33.1033 26.7425 33.0515 26.5027 33.086L27.9584 35.4826H27.3933C27.3419 35.4481 27.3076 35.3791 27.2734 35.3274C26.8281 34.6722 26.4514 33.9308 26.0061 33.2584C25.9719 33.2067 25.9205 33.086 25.8691 33.086C24.756 33.2067 23.6942 33.586 22.8037 34.2584C22.6838 34.3619 22.444 34.5343 22.3584 34.655C22.2557 34.7757 21.9131 35.4308 21.8446 35.4481C21.622 35.4826 21.3823 35.4308 21.1768 35.4308C19.9095 35.4136 18.6251 35.4308 17.3578 35.4481V30.5688H17.9058ZM24.6875 31.1033H24.5676L23.0434 33.586L23.5914 33.2757C24.2251 32.9653 24.9272 32.7584 25.6294 32.6895L24.6875 31.1033Z" fill="#001360"/>
<path d="M43.4226 35.4656L44.0563 30.5518L44.5358 30.569L46.9333 34.638L47.0018 34.7069L49.348 30.569L49.8618 30.5518L50.4783 35.4656H49.9816L49.4679 31.569L49.3994 31.6035L47.1731 35.3966L46.7792 35.4138L44.4844 31.638L44.4159 31.5862L43.9021 35.4828H43.4226V35.4656Z" fill="#001360"/>
<path d="M37.874 30.5688V31.0516H33.8838L33.8496 31.0861V32.4654H37.874V32.9482H33.8838L33.8496 32.9826V34.9654H37.874V35.4826H33.3358L33.3015 35.4482V30.5688H37.874Z" fill="#001360"/>
<path d="M56.0612 30.5688V31.0516H52.0367V32.4654H56.0612V32.9482H52.0367V34.9654H56.0612V35.4826H51.4887V30.5688H56.0612Z" fill="#001360"/>
<path d="M8.57248 30.5688V31.0516H4.56514V32.4654H8.5896V32.9482H4.56514V34.9654H8.5896V35.4482L8.55535 35.4826H4V30.5688H8.57248Z" fill="#001360"/>
<path d="M10.0624 33.7415V35.4311L10.0281 35.4656H9.53146V31.0174C10.4562 30.4484 11.792 30.3794 12.8367 30.638C13.6758 30.8449 14.5492 31.3794 14.4464 32.3622C14.3608 33.3449 13.0079 33.8622 12.1345 33.9139C11.4495 33.9484 10.696 33.9139 10.0624 33.7415ZM10.0624 33.207C10.3021 33.276 10.5419 33.3277 10.7816 33.3622C11.6036 33.4484 13.3847 33.4656 13.8471 32.5863C14.2752 31.7587 13.2477 31.276 12.614 31.138C11.8263 30.9656 10.8159 31.0174 10.0624 31.3449V33.207Z" fill="#001360"/>
<path d="M32.4453 30.5688V31.0516H30.0991V35.4482L30.0648 35.4826H29.5511L29.5168 35.4482V31.0516H27.1707V30.5688H32.4453Z" fill="#001360"/>
<path d="M15.9021 30.5688V35.4482L15.8679 35.4826H15.3541V30.5688H15.9021Z" fill="#001360"/>
<path d="M41.7272 32.7412V33.224H40.2544L40.2202 33.1895V32.7412H41.7272Z" fill="#001360"/>
</g>
<defs>
<clipPath id="clip0_1_54">
<rect width="56" height="5" fill="white" transform="translate(4 30.5)"/>
</clipPath>
</defs>
</svg>
