<svg width="298" height="28" xmlns="http://www.w3.org/2000/svg">
 <defs>
  <clipPath id="clip0_2012_2">
   <rect id="svg_1" fill="white" height="28" width="316"/>
  </clipPath>
 </defs>
 <g>
  <title>background</title>
  <rect fill="none" id="canvas_background" height="30" width="300" y="-1" x="-1"/>
 </g>
 <g>
  <title>Layer 1</title>
  <g stroke="null" id="svg_2" clip-path="url(#clip0_2012_2)">
   <path stroke="null" id="svg_3" fill="white" d="m78.4685,0.38618l0,24.62072l20.5835,0l15.172,-24.52417c0.483,-0.3862 3.285,0 4.059,-0.09655l7.054,11.39312c2.223,0.0965 4.445,0.1931 6.571,0.5793l-0.773,2.4138c-1.353,-0.1931 -2.802,-0.4828 -4.155,-0.2897l8.214,13.4207l-3.189,0c-0.29,-0.1931 -0.483,-0.5793 -0.677,-0.8689c-2.512,-3.669 -4.638,-7.8207 -7.151,-11.5862c-0.193,-0.2897 -0.483,-0.9656 -0.773,-0.9656c-6.281,0.6759 -12.273,2.8 -17.298,6.5656c-0.676,0.5793 -2.029,1.5448 -2.512,2.2206c-0.58,0.6759 -2.513,4.3449 -2.899,4.4414c-1.2565,0.1931 -2.6094,-0.0965 -3.769,-0.0965c-7.1511,-0.0966 -14.3988,0 -21.5499,0.0965l0,-27.32412l3.0924,0zm38.2675,2.99311l-0.676,0l-8.601,13.90341l3.093,-1.7379c3.575,-1.7379 7.537,-2.8965 11.499,-3.2828l-5.315,-8.88271z"/>
   <path stroke="null" id="svg_4" fill="white" d="m222.456,27.8069l3.576,-27.5172l2.706,0.09656l13.529,22.78624l0.386,0.3862l13.239,-23.17245l2.899,-0.09655l3.479,27.5172l-2.802,0l-2.899,-21.82065l-0.387,0.19311l-12.562,21.24134l-2.223,0.0966l-12.949,-21.14484l-0.387,-0.28965l-2.899,21.82069l-2.706,0l0,-0.0966z"/>
   <path stroke="null" id="svg_5" fill="white" d="m191.146,0.38623l0,2.70345l-22.516,0l-0.193,0.1931l0,7.72412l22.709,0l0,2.7035l-22.516,0l-0.193,0.1931l0,11.1034l22.709,0l0,2.8966l-25.608,0l-0.194,-0.1931l0,-27.32417l25.802,0z"/>
   <path stroke="null" id="svg_6" fill="white" d="m293.774,0.38623l0,2.70345l-22.71,0l0,7.91722l22.71,0l0,2.7035l-22.71,0l0,11.2965l22.71,0l0,2.8966l-25.802,0l0,-27.51727l25.802,0z"/>
   <path stroke="null" id="svg_7" fill="white" d="m25.8018,0.38623l0,2.70345l-22.61281,0l0,7.91722l22.70951,0l0,2.7035l-22.70951,0l0,11.2965l22.70951,0l0,2.7035l-0.1933,0.1931l-25.7052,0l0,-27.51727l25.8018,0z"/>
   <path stroke="null" id="svg_8" fill="white" d="m34.209,18.1517l0,9.4621l-0.1933,0.1931l-2.8024,0l0,-24.91039c5.2183,-3.18621 12.7559,-3.57241 18.6507,-2.12414c4.7352,1.15862 9.6636,4.15173 9.0838,9.65513c-0.4832,5.5035 -8.1174,8.4 -13.0459,8.6897c-3.8654,0.1931 -8.1174,0 -11.6929,-0.9655zm0,-2.9931c1.3529,0.3862 2.7058,0.6758 4.0587,0.8689c4.6385,0.4828 14.6887,0.5794 17.2979,-4.3448c2.4159,-4.63446 -3.3823,-7.33791 -6.9578,-8.11033c-4.4453,-0.96551 -10.1468,-0.67586 -14.3988,1.15862l0,10.42761z"/>
   <path stroke="null" id="svg_9" fill="white" d="m160.513,0.38623l0,2.70345l-13.24,0l0,24.62072l-0.193,0.1931l-2.899,0l-0.193,-0.1931l0,-24.62072l-13.239,0l0,-2.70345l29.764,0z"/>
   <path stroke="null" id="svg_10" fill="white" d="m67.1619,0.38623l0,27.32417l-0.1933,0.1931l-2.8991,0l0,-27.51727l3.0924,0z"/>
   <path stroke="null" id="svg_11" fill="white" d="m212.889,12.5517l0,2.7035l-8.31,0l-0.194,-0.1931l0,-2.5104l8.504,0z"/>
  </g>
 </g>
</svg>