<svg width="12" height="16" viewBox="0 0 12 16" fill="none" xmlns="http://www.w3.org/2000/svg">
<path d="M6.02908 0C2.719 0 0 2.45333 0 5.44C0 6.4 0.295543 7.30667 0.768412 8.10667C0.768412 8.10667 0.768412 8.10667 0.768412 8.16L5.67443 15.84C5.79265 15.9467 5.91086 16 6.02908 16C6.1473 16 6.26552 15.9467 6.32463 15.84L11.2306 8.16C11.2306 8.16 11.2306 8.16 11.2306 8.10667C11.7626 7.30667 11.9991 6.34667 11.9991 5.44C12.0582 2.45333 9.33917 0 6.02908 0ZM8.62986 5.44C8.62986 6.72 7.44769 7.78667 6.02908 7.78667C4.61047 7.78667 3.48741 6.72 3.48741 5.44C3.48741 4.16 4.66958 3.14667 6.02908 3.14667C7.38858 3.14667 8.62986 4.16 8.62986 5.44Z" fill="black"/>
</svg>
