<svg width="24" height="24" viewBox="0 0 24 24" fill="none" xmlns="http://www.w3.org/2000/svg">
<path d="M21.3506 0C22.8138 3.29882e-05 24 1.1863 24 2.64941V21.3506C24 22.8138 22.8138 24 21.3506 24H2.64941C1.1863 24 3.29878e-05 22.8138 0 21.3506V2.64941C4.89712e-06 1.18628 1.18628 4.89704e-06 2.64941 0H21.3506ZM12.0996 6C8.79071 6.00017 6.00005 8.56275 6 11.9795C6 13.4131 6.2592 14.4012 6.49609 15.2852C6.68853 16.013 6.86616 16.6665 6.86621 17.4463C6.94764 18.4416 8.6871 17.9291 9.36816 17.2012C9.41262 17.1493 9.50137 17.1352 9.56055 17.1797C10.4488 17.811 10.9973 17.9668 12.1299 17.9668C15.3204 17.9666 18 15.3368 18 12.0166C17.9999 8.69632 15.4086 6 12.0996 6ZM12.1963 8.96387C13.8026 9.05307 15.0902 10.4643 15.0088 12.0762C14.9273 13.6953 13.4993 14.9584 11.8857 14.877C11.3972 14.8547 10.9528 14.6683 10.5605 14.4307C10.5015 14.3936 10.4273 14.4011 10.3828 14.4453C10.1314 14.6828 9.78353 14.9505 9.64258 14.9141C9.30205 14.8249 8.90978 13.1014 9.13184 11.6826C9.39834 9.97416 10.6269 8.88216 12.1963 8.96387Z" fill="white"/>
</svg>
