<svg width="18" height="18" viewBox="0 0 18 18" fill="none" xmlns="http://www.w3.org/2000/svg">
<path fill-rule="evenodd" clip-rule="evenodd" d="M13.2413 17.9974C11.9432 17.9498 8.26403 17.4413 4.41092 13.5899C0.558712 9.73759 0.0511542 6.06012 0.00247197 4.76128C-0.0696498 2.78194 1.44671 0.859379 3.19836 0.108561C3.4093 0.0174963 3.6403 -0.0171759 3.86867 0.00794978C4.09707 0.0330738 4.31498 0.117132 4.50107 0.251875C5.94351 1.30284 6.9388 2.89281 7.79344 4.14296C7.98148 4.41763 8.06187 4.75187 8.01931 5.08199C7.97675 5.41209 7.81421 5.71502 7.56264 5.93303L5.80377 7.23907C5.71881 7.30042 5.65899 7.39052 5.63544 7.49265C5.61189 7.59477 5.62622 7.70196 5.67576 7.7943C6.07423 8.51809 6.78283 9.59609 7.59419 10.4073C8.40558 11.2185 9.53518 11.9738 10.3096 12.4173C10.4067 12.4718 10.521 12.487 10.629 12.4599C10.7369 12.4327 10.8304 12.3652 10.8902 12.2713L12.0351 10.529C12.2456 10.2494 12.5561 10.0621 12.9016 10.0064C13.2471 9.95058 13.6008 10.0306 13.8886 10.2297C15.1571 11.1076 16.6373 12.0856 17.721 13.4728C17.8667 13.6602 17.9594 13.8832 17.9893 14.1187C18.0194 14.3541 17.9856 14.5933 17.8914 14.8112C17.1368 16.5716 15.2274 18.0704 13.2413 17.9974Z" fill="white"/>
</svg>