<svg width="24" height="24" viewBox="0 0 24 24" fill="none" xmlns="http://www.w3.org/2000/svg">
<path d="M16.97 9.57633C16.97 5.49286 13.6597 2.18166 9.57633 2.18134C5.49266 2.18134 2.18134 5.49266 2.18134 9.57633C2.18166 13.6597 5.49286 16.97 9.57633 16.97C13.6595 16.9697 16.9697 13.6595 16.97 9.57633ZM19.1513 9.57633C19.1512 11.8271 18.3724 13.8944 17.0725 15.5291L23.6805 22.1384C24.1065 22.5644 24.1065 23.2544 23.6805 23.6805C23.2544 24.1065 22.5644 24.1065 22.1384 23.6805L15.5291 17.0725C13.8944 18.3724 11.8271 19.1512 9.57633 19.1513C4.28785 19.1513 0.000319831 14.8647 0 9.57633C0 4.28765 4.28765 0 9.57633 0C14.8647 0.000319836 19.1513 4.28785 19.1513 9.57633Z" fill="white"/>
</svg>
