<svg width="14" height="14" viewBox="0 0 14 14" fill="none" xmlns="http://www.w3.org/2000/svg">
<g clip-path="url(#clip0_201_585)">
<path d="M0.205302 5.86143L0.242635 5.9361L0.345302 6.01076C0.373302 6.02943 0.419969 6.03876 0.466635 6.03876C0.550635 6.0481 0.653302 6.0481 0.830635 6.0481H12.74C12.9173 6.0481 13.02 6.0481 13.104 6.03876C13.1506 6.02943 13.188 6.0201 13.2346 6.00143L13.3 5.97343L13.3373 5.91743L13.3746 5.8521C13.384 5.81476 13.3933 5.77743 13.4026 5.72143C13.412 5.6281 13.412 5.5161 13.412 5.32943C13.412 4.66676 13.412 4.1441 13.3653 3.7521C13.3186 3.34143 13.216 3.0801 13.0293 2.87476C12.8426 2.66943 12.6 2.55743 12.2266 2.51076C11.984 2.47343 11.6946 2.4641 11.34 2.4641V1.08276C11.34 0.522763 10.8826 0.0654297 10.3226 0.0654297C9.76264 0.0654297 9.3053 0.522763 9.3053 1.08276V2.4641H4.27464V1.08276C4.27464 0.522763 3.8173 0.0654297 3.2573 0.0654297C2.6973 0.0654297 2.23997 0.522763 2.23997 1.08276V2.4641C1.8853 2.4641 1.59597 2.48276 1.3533 2.51076C0.970635 2.56676 0.737302 2.67876 0.550635 2.87476C0.363969 3.0801 0.261302 3.34143 0.214635 3.7521C0.167969 4.1441 0.167969 4.66676 0.167969 5.32943C0.167969 5.50676 0.167969 5.6281 0.177302 5.72143C0.177302 5.78676 0.186635 5.8241 0.205302 5.86143Z" fill="black"/>
<path d="M13.384 6.99995C13.3746 6.95328 13.3653 6.90662 13.356 6.86928L13.2906 6.75728L13.2253 6.72928L13.1786 6.71062C13.1506 6.70128 13.1226 6.70128 13.0946 6.69195C13.0106 6.68262 12.908 6.68262 12.7306 6.68262H0.821302C0.643969 6.68262 0.541302 6.68262 0.457302 6.69195C0.410635 6.70128 0.373302 6.71062 0.326635 6.72928L0.251969 6.77595L0.205302 6.87862C0.186635 6.90662 0.177302 6.94395 0.177302 6.99995C0.167969 7.04662 0.167969 7.10262 0.167969 7.17728V10.9853C0.167969 11.648 0.167969 12.1706 0.214635 12.5626C0.261302 12.9733 0.363969 13.2346 0.550635 13.44C0.737302 13.6453 0.979969 13.7573 1.3533 13.804C1.7173 13.86 2.1933 13.86 2.8093 13.86H10.752C11.3586 13.86 11.844 13.86 12.208 13.804C12.5906 13.748 12.824 13.636 13.0106 13.44C13.1973 13.2346 13.3 12.9733 13.3466 12.5626C13.3933 12.1706 13.3933 11.648 13.3933 10.9853V7.39195C13.3933 7.20528 13.3933 7.09328 13.384 6.99995ZM3.49997 11.7133C3.49997 11.9653 3.29464 12.1706 3.04264 12.1706H2.4453C2.1933 12.1706 1.98797 11.9653 1.98797 11.7133V11.116C1.98797 10.864 2.1933 10.6586 2.4453 10.6586H3.04264C3.29464 10.6586 3.49997 10.864 3.49997 11.116V11.7133ZM3.49997 9.40795C3.49997 9.65995 3.29464 9.86528 3.04264 9.86528H2.4453C2.1933 9.86528 1.98797 9.65995 1.98797 9.40795V8.81062C1.98797 8.55862 2.1933 8.35328 2.4453 8.35328H3.04264C3.29464 8.35328 3.49997 8.55862 3.49997 8.81062V9.40795ZM6.18797 11.7133C6.18797 11.9653 5.98264 12.1706 5.73064 12.1706H5.1333C4.8813 12.1706 4.67597 11.9653 4.67597 11.7133V11.116C4.67597 10.864 4.8813 10.6586 5.1333 10.6586H5.73064C5.98264 10.6586 6.18797 10.864 6.18797 11.116V11.7133ZM6.18797 9.40795C6.18797 9.65995 5.98264 9.86528 5.73064 9.86528H5.1333C4.8813 9.86528 4.67597 9.65995 4.67597 9.40795V8.81062C4.67597 8.55862 4.8813 8.35328 5.1333 8.35328H5.73064C5.98264 8.35328 6.18797 8.55862 6.18797 8.81062V9.40795ZM8.8853 11.7133C8.8853 11.9653 8.67997 12.1706 8.42797 12.1706H7.83063C7.57863 12.1706 7.3733 11.9653 7.3733 11.7133V11.116C7.3733 10.864 7.57863 10.6586 7.83063 10.6586H8.42797C8.67997 10.6586 8.8853 10.864 8.8853 11.116V11.7133ZM8.8853 9.40795C8.8853 9.65995 8.67997 9.86528 8.42797 9.86528H7.83063C7.57863 9.86528 7.3733 9.65995 7.3733 9.40795V8.81062C7.3733 8.55862 7.57863 8.35328 7.83063 8.35328H8.42797C8.67997 8.35328 8.8853 8.55862 8.8853 8.81062V9.40795ZM11.5733 11.7133C11.5733 11.9653 11.368 12.1706 11.116 12.1706H10.5186C10.2666 12.1706 10.0613 11.9653 10.0613 11.7133V11.116C10.0613 10.864 10.2666 10.6586 10.5186 10.6586H11.116C11.368 10.6586 11.5733 10.864 11.5733 11.116V11.7133ZM11.5733 9.40795C11.5733 9.65995 11.368 9.86528 11.116 9.86528H10.5186C10.2666 9.86528 10.0613 9.65995 10.0613 9.40795V8.81062C10.0613 8.55862 10.2666 8.35328 10.5186 8.35328H11.116C11.368 8.35328 11.5733 8.55862 11.5733 8.81062V9.40795Z" fill="black"/>
</g>
<defs>
<clipPath id="clip0_201_585">
<rect width="14" height="14" fill="white"/>
</clipPath>
</defs>
</svg>
