<svg width="14" height="14" viewBox="0 0 14 14" fill="none" xmlns="http://www.w3.org/2000/svg">
<g clip-path="url(#clip0_201_823)">
<path d="M0.205302 5.86133L0.242635 5.936L0.345302 6.01066C0.373302 6.02933 0.419969 6.03866 0.466635 6.03866C0.550635 6.048 0.653302 6.048 0.830635 6.048H12.74C12.9173 6.048 13.02 6.048 13.104 6.03866C13.1506 6.02933 13.188 6.02 13.2346 6.00133L13.3 5.97333L13.3373 5.91733L13.3746 5.852C13.384 5.81466 13.3933 5.77733 13.4026 5.72133C13.412 5.628 13.412 5.516 13.412 5.32933C13.412 4.66666 13.412 4.144 13.3653 3.752C13.3186 3.34133 13.216 3.08 13.0293 2.87466C12.8426 2.66933 12.6 2.55733 12.2266 2.51066C11.984 2.47333 11.6946 2.464 11.34 2.464V1.08266C11.34 0.522664 10.8826 0.0653305 10.3226 0.0653305C9.76264 0.0653305 9.3053 0.522664 9.3053 1.08266V2.464H4.27464V1.08266C4.27464 0.522664 3.8173 0.0653305 3.2573 0.0653305C2.6973 0.0653305 2.23997 0.522664 2.23997 1.08266V2.464C1.8853 2.464 1.59597 2.48266 1.3533 2.51066C0.970635 2.56666 0.737302 2.67866 0.550635 2.87466C0.363969 3.08 0.261302 3.34133 0.214635 3.752C0.167969 4.144 0.167969 4.66666 0.167969 5.32933C0.167969 5.50666 0.167969 5.628 0.177302 5.72133C0.177302 5.78666 0.186635 5.824 0.205302 5.86133Z" fill="black"/>
<path d="M13.384 7C13.3746 6.95333 13.3653 6.90666 13.356 6.86933L13.2906 6.75733L13.2253 6.72933L13.1786 6.71066C13.1506 6.70133 13.1226 6.70133 13.0946 6.692C13.0106 6.68266 12.908 6.68266 12.7306 6.68266H0.821302C0.643969 6.68266 0.541302 6.68266 0.457302 6.692C0.410635 6.70133 0.373302 6.71066 0.326635 6.72933L0.251969 6.776L0.205302 6.87866C0.186635 6.90666 0.177302 6.944 0.177302 7C0.167969 7.04666 0.167969 7.10266 0.167969 7.17733V10.9853C0.167969 11.648 0.167969 12.1707 0.214635 12.5627C0.261302 12.9733 0.363969 13.2347 0.550635 13.44C0.737302 13.6453 0.979969 13.7573 1.3533 13.804C1.7173 13.86 2.1933 13.86 2.8093 13.86H10.752C11.3586 13.86 11.844 13.86 12.208 13.804C12.5906 13.748 12.824 13.636 13.0106 13.44C13.1973 13.2347 13.3 12.9733 13.3466 12.5627C13.3933 12.1707 13.3933 11.648 13.3933 10.9853V7.392C13.3933 7.20533 13.3933 7.09333 13.384 7ZM3.49997 11.7133C3.49997 11.9653 3.29464 12.1707 3.04264 12.1707H2.4453C2.1933 12.1707 1.98797 11.9653 1.98797 11.7133V11.116C1.98797 10.864 2.1933 10.6587 2.4453 10.6587H3.04264C3.29464 10.6587 3.49997 10.864 3.49997 11.116V11.7133ZM3.49997 9.408C3.49997 9.66 3.29464 9.86533 3.04264 9.86533H2.4453C2.1933 9.86533 1.98797 9.66 1.98797 9.408V8.81066C1.98797 8.55866 2.1933 8.35333 2.4453 8.35333H3.04264C3.29464 8.35333 3.49997 8.55866 3.49997 8.81066V9.408ZM6.18797 11.7133C6.18797 11.9653 5.98264 12.1707 5.73064 12.1707H5.1333C4.8813 12.1707 4.67597 11.9653 4.67597 11.7133V11.116C4.67597 10.864 4.8813 10.6587 5.1333 10.6587H5.73064C5.98264 10.6587 6.18797 10.864 6.18797 11.116V11.7133ZM6.18797 9.408C6.18797 9.66 5.98264 9.86533 5.73064 9.86533H5.1333C4.8813 9.86533 4.67597 9.66 4.67597 9.408V8.81066C4.67597 8.55866 4.8813 8.35333 5.1333 8.35333H5.73064C5.98264 8.35333 6.18797 8.55866 6.18797 8.81066V9.408ZM8.8853 11.7133C8.8853 11.9653 8.67997 12.1707 8.42797 12.1707H7.83063C7.57863 12.1707 7.3733 11.9653 7.3733 11.7133V11.116C7.3733 10.864 7.57863 10.6587 7.83063 10.6587H8.42797C8.67997 10.6587 8.8853 10.864 8.8853 11.116V11.7133ZM8.8853 9.408C8.8853 9.66 8.67997 9.86533 8.42797 9.86533H7.83063C7.57863 9.86533 7.3733 9.66 7.3733 9.408V8.81066C7.3733 8.55866 7.57863 8.35333 7.83063 8.35333H8.42797C8.67997 8.35333 8.8853 8.55866 8.8853 8.81066V9.408ZM11.5733 11.7133C11.5733 11.9653 11.368 12.1707 11.116 12.1707H10.5186C10.2666 12.1707 10.0613 11.9653 10.0613 11.7133V11.116C10.0613 10.864 10.2666 10.6587 10.5186 10.6587H11.116C11.368 10.6587 11.5733 10.864 11.5733 11.116V11.7133ZM11.5733 9.408C11.5733 9.66 11.368 9.86533 11.116 9.86533H10.5186C10.2666 9.86533 10.0613 9.66 10.0613 9.408V8.81066C10.0613 8.55866 10.2666 8.35333 10.5186 8.35333H11.116C11.368 8.35333 11.5733 8.55866 11.5733 8.81066V9.408Z" fill="black"/>
</g>
<defs>
<clipPath id="clip0_201_823">
<rect width="14" height="14" fill="white"/>
</clipPath>
</defs>
</svg>
