<svg width="87" height="15" viewBox="0 0 87 15" fill="none" xmlns="http://www.w3.org/2000/svg">
<path d="M7.0617 0.79838C7.25157 0.452535 7.74843 0.452536 7.9383 0.79838L9.73186 4.06546C9.80368 4.19627 9.93016 4.28817 10.0768 4.31604L13.7382 5.01224C14.1258 5.08594 14.2793 5.55849 14.0091 5.84593L11.4561 8.5613C11.3539 8.67002 11.3056 8.81871 11.3244 8.96675L11.7937 12.6641C11.8434 13.0555 11.4414 13.3475 11.0845 13.1793L7.71316 11.5905C7.57817 11.5268 7.42183 11.5268 7.28684 11.5905L3.91548 13.1793C3.55859 13.3475 3.15662 13.0555 3.2063 12.6641L3.67561 8.96675C3.6944 8.81871 3.64609 8.67002 3.54387 8.5613L0.990939 5.84593C0.720693 5.55849 0.874233 5.08594 1.26182 5.01224L4.92324 4.31604C5.06984 4.28817 5.19632 4.19627 5.26814 4.06546L7.0617 0.79838Z" fill="#F6D75A"/>
<path d="M25.0617 0.79838C25.2516 0.452535 25.7484 0.452536 25.9383 0.79838L27.7319 4.06546C27.8037 4.19627 27.9302 4.28817 28.0768 4.31604L31.7382 5.01224C32.1258 5.08594 32.2793 5.55849 32.0091 5.84593L29.4561 8.5613C29.3539 8.67002 29.3056 8.81871 29.3244 8.96675L29.7937 12.6641C29.8434 13.0555 29.4414 13.3475 29.0845 13.1793L25.7132 11.5905C25.5782 11.5268 25.4218 11.5268 25.2868 11.5905L21.9155 13.1793C21.5586 13.3475 21.1566 13.0555 21.2063 12.6641L21.6756 8.96675C21.6944 8.81871 21.6461 8.67002 21.5439 8.5613L18.9909 5.84593C18.7207 5.55849 18.8742 5.08594 19.2618 5.01224L22.9232 4.31604C23.0698 4.28817 23.1963 4.19627 23.2681 4.06546L25.0617 0.79838Z" fill="#F6D75A"/>
<path d="M43.0617 0.79838C43.2516 0.452535 43.7484 0.452536 43.9383 0.79838L45.7319 4.06546C45.8037 4.19627 45.9302 4.28817 46.0768 4.31604L49.7382 5.01224C50.1258 5.08594 50.2793 5.55849 50.0091 5.84593L47.4561 8.5613C47.3539 8.67002 47.3056 8.81871 47.3244 8.96675L47.7937 12.6641C47.8434 13.0555 47.4414 13.3475 47.0845 13.1793L43.7132 11.5905C43.5782 11.5268 43.4218 11.5268 43.2868 11.5905L39.9155 13.1793C39.5586 13.3475 39.1566 13.0555 39.2063 12.6641L39.6756 8.96675C39.6944 8.81871 39.6461 8.67002 39.5439 8.5613L36.9909 5.84593C36.7207 5.55849 36.8742 5.08594 37.2618 5.01224L40.9232 4.31604C41.0698 4.28817 41.1963 4.19627 41.2681 4.06546L43.0617 0.79838Z" fill="#F6D75A"/>
<path d="M61.0617 0.79838C61.2516 0.452535 61.7484 0.452536 61.9383 0.79838L63.7319 4.06546C63.8037 4.19627 63.9302 4.28817 64.0768 4.31604L67.7382 5.01224C68.1258 5.08594 68.2793 5.55849 68.0091 5.84593L65.4561 8.5613C65.3539 8.67002 65.3056 8.81871 65.3244 8.96675L65.7937 12.6641C65.8434 13.0555 65.4414 13.3475 65.0845 13.1793L61.7132 11.5905C61.5782 11.5268 61.4218 11.5268 61.2868 11.5905L57.9155 13.1793C57.5586 13.3475 57.1566 13.0555 57.2063 12.6641L57.6756 8.96675C57.6944 8.81871 57.6461 8.67002 57.5439 8.5613L54.9909 5.84593C54.7207 5.55849 54.8742 5.08594 55.2618 5.01224L58.9232 4.31604C59.0698 4.28817 59.1963 4.19627 59.2681 4.06546L61.0617 0.79838Z" fill="#F6D75A"/>
<path d="M79.0617 0.79838C79.2516 0.452535 79.7484 0.452536 79.9383 0.79838L81.7319 4.06546C81.8037 4.19627 81.9302 4.28817 82.0768 4.31604L85.7382 5.01224C86.1258 5.08594 86.2793 5.55849 86.0091 5.84593L83.4561 8.5613C83.3539 8.67002 83.3056 8.81871 83.3244 8.96675L83.7937 12.6641C83.8434 13.0555 83.4414 13.3475 83.0845 13.1793L79.7132 11.5905C79.5782 11.5268 79.4218 11.5268 79.2868 11.5905L75.9155 13.1793C75.5586 13.3475 75.1566 13.0555 75.2063 12.6641L75.6756 8.96675C75.6944 8.81871 75.6461 8.67002 75.5439 8.5613L72.9909 5.84593C72.7207 5.55849 72.8742 5.08594 73.2618 5.01224L76.9232 4.31604C77.0698 4.28817 77.1963 4.19627 77.2681 4.06546L79.0617 0.79838Z" fill="#F6D75A"/>
</svg>
